<?xml version="1.0" encoding="UTF-8" standalone="no"?>
<svg
   xmlns:dc="http://purl.org/dc/elements/1.1/"
   xmlns:cc="http://creativecommons.org/ns#"
   xmlns:rdf="http://www.w3.org/1999/02/22-rdf-syntax-ns#"
   xmlns:svg="http://www.w3.org/2000/svg"
   xmlns="http://www.w3.org/2000/svg"
   id="svg4"
   version="1.1"
   height="48"
   width="248">
  <metadata
     id="metadata10">
    <rdf:RDF>
      <cc:Work
         rdf:about="">
        <dc:format>image/svg+xml</dc:format>
        <dc:type
           rdf:resource="http://purl.org/dc/dcmitype/StillImage" />
        <dc:title></dc:title>
      </cc:Work>
    </rdf:RDF>
  </metadata>
  <defs
     id="defs8" />
  <path
     style="fill:#106881;fill-opacity:1;fill-rule:evenodd;stroke-width:1"
     id="path2"
     d="m 17.091716,25.685523 c 0,3.620969 2.369875,6.284874 5.798256,6.284874 2.42133,0 4.23549,-1.356945 5.092586,-3.51953 l 6.152561,1.91119 c -1.514251,4.576564 -6.051121,7.441879 -11.295132,7.441879 -6.858231,0 -12.303652,-5.079354 -12.303652,-12.118413 0,-7.042 5.445421,-12.119884 12.303652,-12.119884 5.244011,0 9.782351,2.91677 11.295132,7.493334 l -6.152561,1.859735 c -0.857096,-2.11113 -2.671256,-3.51953 -5.092586,-3.51953 -3.428381,0 -5.798256,2.665375 -5.798256,6.286345 m 24.677871,0 c 0,3.569514 2.368405,6.284874 5.798256,6.284874 3.378395,0 5.74827,-2.71536 5.74827,-6.284875 0,-3.620969 -2.369875,-6.286344 -5.74827,-6.286344 -3.429851,0 -5.799726,2.665375 -5.799726,6.286344 m -6.555381,0 c 0,-7.041999 5.498346,-12.119883 12.355107,-12.119883 6.856761,0 12.353636,5.079354 12.353636,12.119883 0,7.03906 -5.496875,12.118414 -12.353636,12.118414 -6.858231,0 -12.355107,-5.079354 -12.355107,-12.118414 M 66.798822,2 c 2.369876,0 4.235491,1.91119 4.235491,4.2237298 0,2.3639952 -1.865615,4.1752142 -4.23402,4.1752142 -2.319891,0 -4.185506,-1.811219 -4.185506,-4.1752142 C 62.614787,3.91119 64.480402,2 66.798822,2 Z m 3.579806,35.199706 H 63.823247 V 19.702028 h -3.226971 v -5.533629 h 9.782352 z M 88.042432,13.565639 c 4.992616,0 8.570951,3.168165 8.570951,8.548899 V 37.199706 H 90.059472 V 23.774333 c 0,-2.91677 -1.865615,-4.12376 -3.93411,-4.12376 -1.91413,0 -3.629791,1.055565 -4.889706,2.61539 V 37.199706 H 74.680275 V 14.169869 h 6.403956 v 0.90561 c 0,0.80417 -0.09997,1.808279 -0.09997,1.808279 a 9.0943232,9.0943232 0 0 1 7.058171,-3.318119 m 26.321488,7.643289 c -1.86708,-1.80828 -4.1855,-2.362525 -5.69828,-2.362525 -1.71419,0 -2.31989,0.854155 -2.31989,1.558355 0,0.80417 0.50426,1.358415 1.71419,1.759765 l 3.83267,1.20699 c 4.73975,1.558354 6.35251,4.123759 6.35251,7.140499 0,3.369574 -2.87267,7.291924 -9.17519,7.291924 -5.09406,0 -8.27104,-1.961175 -10.186641,-3.62097 l 3.479831,-4.525109 c 1.66274,1.558355 4.63832,2.866785 6.80678,2.866785 1.56276,0 2.5213,-0.80564 2.5213,-1.70978 0,-1.157005 -0.75566,-1.661265 -2.62127,-2.21257 l -3.93411,-1.157005 c -3.73123,-1.20699 -5.343981,-3.720939 -5.343981,-6.739149 0,-3.770924 3.428381,-7.140499 8.975241,-7.140499 3.02556,0 6.60537,0.90561 9.32807,3.419559 z m 12.05079,4.476595 c 0,3.519529 2.41986,6.336329 5.89969,6.336329 3.47984,0 5.8997,-2.8168 5.8997,-6.336329 0,-3.570985 -2.41986,-6.286345 -5.8997,-6.286345 -3.47983,0 -5.89969,2.71536 -5.89969,6.286345 z m 11.64796,8.598883 c -1.16141,1.959705 -3.88265,3.51953 -7.21106,3.51953 -6.35397,0 -11.19369,-5.079354 -11.19369,-12.118413 0,-7.042 4.78973,-12.119884 11.1437,-12.119884 3.52982,0 6.20255,1.60981 7.36102,3.569514 0,-0.249924 -0.1,-0.702729 -0.1,-1.909719 v -1.055565 h 6.55539 V 46 h -6.55539 V 34.282936 Z M 148.7227,28.752247 V 14.168399 h 6.55538 v 13.378328 c 0,3.166695 2.11701,4.42514 4.43691,4.42514 2.36987,0 4.43691,-1.258445 4.43691,-4.42514 V 14.168399 h 6.50538 v 14.583848 c 0,4.826489 -3.83267,9.051689 -10.94229,9.051689 -7.05965,0 -10.99375,-4.2252 -10.99375,-9.051689 m 38.85742,0.19994 v -1.658325 c -0.40281,0.40282 -1.10848,0.50279 -2.01704,0.50279 h -2.46983 c -2.06851,0 -3.27844,0.90561 -3.27844,2.51395 0,1.558355 1.26139,2.71536 3.27844,2.71536 2.36986,0 4.48688,-1.20552 4.48688,-4.072305 z m 0,-7.089044 c 0,-1.658325 -1.31137,-2.71536 -3.83119,-2.71536 -2.32137,0 -5.24548,1.157005 -6.95967,2.161115 l -2.57128,-4.926459 c 0,0 4.28547,-2.8168 9.88231,-2.8168 5.24401,0 10.03522,2.41398 10.03522,8.498914 v 15.135153 h -6.55539 v -2.161115 c -1.20992,1.80975 -3.83119,2.765345 -6.45394,2.765345 -4.89116,0 -8.06815,-3.469545 -8.06815,-7.241939 0,-4.373685 3.22697,-7.089044 8.36953,-7.089044 h 4.53834 c 1.10997,0 1.61422,-0.50426 1.61422,-1.358415 v -0.249925 z m 24.89986,-1.256975 h -2.77269 c -3.32988,0 -4.84119,1.558355 -4.84119,5.582144 v 11.011394 h -6.55685 V 14.169869 h 6.35397 v 3.670954 c 0.90855,-2.463964 3.127,-3.973804 6.00113,-3.973804 0.6057,0 1.20993,0.05146 1.81563,0.20288 z m 7.63889,2.61539 h 10.33512 c -0.35284,-2.31401 -2.31842,-4.2252 -5.09111,-4.2252 -2.7727,0 -4.73976,1.759765 -5.24401,4.2252 z m 17.34625,4.373684 h -17.1963 c 0.35284,2.565405 2.37135,4.663303 5.29546,4.62655 2.50954,-0.03234 3.9547,-1.114371 4.96322,-2.878546 l 6.36573,1.490728 c -2.06849,4.927929 -6.28634,6.969962 -11.42892,6.969962 -6.90968,0 -12.10224,-5.079354 -12.10224,-12.118414 0,-7.041999 5.0926,-12.119883 12.00081,-12.119883 6.35251,0 12.10224,4.123759 12.10224,13.779678 z" />
</svg>
