<?xml version="1.0" encoding="UTF-8" standalone="no"?>
<svg
   xmlns:dc="http://purl.org/dc/elements/1.1/"
   xmlns:cc="http://creativecommons.org/ns#"
   xmlns:rdf="http://www.w3.org/1999/02/22-rdf-syntax-ns#"
   xmlns:svg="http://www.w3.org/2000/svg"
   xmlns="http://www.w3.org/2000/svg"
   id="svg14"
   version="1.1"
   viewBox="0 0 413.15759 119.88472"
   height="119.88471"
   width="413.15759">
  <g>
    <path
       id="path3722"
       style="font-style:italic;font-variant:normal;font-weight:bold;font-stretch:normal;font-size:133.33332825px;line-height:24.98267746px;font-family:'Roboto Condensed';-inkscape-font-specification:'Roboto Condensed, Bold Italic';letter-spacing:-1.5px;word-spacing:0px;fill:#ffffff;fill-opacity:1;stroke:none;stroke-width:1px;stroke-linecap:butt;stroke-linejoin:miter;stroke-opacity:1"
       d="M 35.799767,102.50839 Q 35.278934,100.29485 35.278934,97.039641 29.289351,103.87557 21.60706,103.87557 13.469039,103.74537 8.521123,97.885991 3.63831,92.026621 4.028935,83.302659 4.614873,72.104743 12.752893,65.789639 20.890914,59.409431 34.627892,59.409431 h 5.273438 l 0.846354,-5.729166 0.195312,-2.929688 q 0,-5.664062 -4.557291,-5.664062 -6.315104,-0.195313 -7.682291,8.072916 L 10.799768,53.28964 q 0.585938,-10.026042 8.333333,-16.341146 7.747396,-6.380208 18.880208,-6.249999 10.48177,0.260416 16.015624,6.640624 5.598963,6.315104 4.557292,16.731771 l -5.729167,35.80729 -0.260416,3.450521 q -0.260417,4.55729 0.911458,8.007809 l -0.0651,1.17188 z M 26.554976,89.487555 q 4.752604,0.130208 8.854166,-4.166667 l 3.190104,-14.908853 h -3.906249 q -5.208334,0.260416 -8.398438,3.515625 -3.190104,3.255208 -3.841145,8.203124 l -0.0651,2.473959 q 0,2.083333 1.041666,3.45052 1.106771,1.367188 3.125,1.432292 z" />
    <path
       id="path3724"
       style="font-style:italic;font-variant:normal;font-weight:bold;font-stretch:normal;font-size:133.33332825px;line-height:24.98267746px;font-family:'Roboto Condensed';-inkscape-font-specification:'Roboto Condensed, Bold Italic';letter-spacing:-1.5px;word-spacing:0px;fill:#ffffff;fill-opacity:1;stroke:none;stroke-width:1px;stroke-linecap:butt;stroke-linejoin:miter;stroke-opacity:1"
       d="m 98.362266,14.747974 -2.99479,17.317708 h 9.114584 l -2.40885,13.867187 h -9.114594 l -5.98958,35.481769 -0.19531,2.083334 q -0.26042,4.361979 3.64583,4.492187 1.10677,0.0651 4.42709,-0.325521 l -1.62761,14.453122 q -4.03646,1.62761 -9.375,1.62761 -7.8776,-0.13021 -11.84896,-5.664069 -3.97135,-5.53385 -3.05989,-15.104163 l 6.05469,-37.044269 h -7.94271 l 2.40885,-13.867187 h 7.87761 l 3.05989,-17.317708 z" />
    <path
       id="path3726"
       style="font-style:italic;font-variant:normal;font-weight:bold;font-stretch:normal;font-size:133.33332825px;line-height:24.98267746px;font-family:'Roboto Condensed';-inkscape-font-specification:'Roboto Condensed, Bold Italic';letter-spacing:-1.5px;word-spacing:0px;fill:#ffffff;fill-opacity:1;stroke:none;stroke-width:1px;stroke-linecap:butt;stroke-linejoin:miter;stroke-opacity:1"
       d="m 130.06539,32.000578 -1.17187,6.640625 q 7.29167,-8.138021 16.60156,-7.877604 10.09115,0.260416 13.15104,9.505208 8.00781,-9.765625 17.83854,-9.570312 7.42188,0.130208 11.32813,5.598958 3.97135,5.403645 3.90625,15.429687 l -0.32552,5.989583 -7.42188,44.791667 h -18.03385 l 7.48698,-44.921876 0.32552,-3.645833 q 0.52083,-7.812499 -5.20833,-7.812499 -4.6224,0 -8.46355,6.315103 l -0.39062,3.125 -8.13802,46.940105 h -17.96875 l 7.42187,-44.791667 0.39063,-3.645833 q 0.52083,-7.942708 -5.14323,-7.942708 -2.73438,0 -4.6875,1.562499 -1.88802,1.497396 -3.51563,3.580729 l -8.91927,51.23698 h -17.96874 l 12.23958,-70.442708 z" />
    <path
       id="path3728"
       style="font-style:italic;font-variant:normal;font-weight:bold;font-stretch:normal;font-size:133.33332825px;line-height:24.98267746px;font-family:'Roboto Condensed';-inkscape-font-specification:'Roboto Condensed, Bold Italic';letter-spacing:-1.5px;word-spacing:0px;fill:#ffffff;fill-opacity:1;stroke:none;stroke-width:1px;stroke-linecap:butt;stroke-linejoin:miter;stroke-opacity:1"
       d="m 223.81279,88.641201 q 7.42188,0.195312 9.17969,-10.481771 l 16.86198,-0.0651 q -1.10677,11.71875 -8.65886,18.880201 -7.55208,7.161459 -18.42447,6.901039 -9.83073,-0.26041 -15.69011,-5.859369 -5.79427,-5.66406 -6.90104,-15.755204 -0.97656,-8.203125 0.91146,-19.791666 1.95312,-11.588542 7.16146,-19.335937 8.52864,-12.760416 24.28385,-12.369791 10.67708,0.325521 16.27604,7.747395 5.59896,7.356771 5.01302,19.921875 l -16.92708,-0.06511 0.0651,-4.036458 q -0.26041,-8.072916 -6.3802,-8.398437 -9.57032,-0.520833 -11.39323,14.843749 l -1.23698,11.783854 q -0.78125,5.273437 -0.52084,8.789062 0.45573,7.096354 6.38021,7.291668 z" />
    <path
       id="path3730"
       style="font-style:normal;font-variant:normal;font-weight:normal;font-stretch:normal;font-size:96px;line-height:24.99999809px;font-family:'Droid Sans';-inkscape-font-specification:'Droid Sans';letter-spacing:0px;word-spacing:0px;fill:#fbd570;fill-opacity:1;stroke:none;stroke-width:1px;stroke-linecap:butt;stroke-linejoin:miter;stroke-opacity:1"
       d="m 291.97424,30.763599 q 10.67708,0.260416 16.66666,7.226562 5.98958,6.966146 6.57552,18.684895 v 4.622396 q -0.84635,20.442707 -9.83073,31.705729 -8.91927,11.197909 -23.30729,10.807289 -8.39843,-0.19531 -13.86718,-4.492189 -5.46875,-4.36198 -7.87761,-12.044268 -2.34375,-7.682291 -1.30208,-17.643228 l 0.39062,-3.515625 q 1.88802,-16.601562 10.61198,-26.10677 8.72396,-9.570312 21.94011,-9.244791 z m -15.23438,46.223956 q 0,11.263021 6.90104,11.653646 9.375,0.520833 12.17448,-14.322916 l 0.71615,-4.6875 q 0.91145,-9.375 0.91145,-12.044271 0,-11.197916 -7.09635,-11.653645 -5.14323,-0.260417 -8.46354,4.752604 -3.32031,5.013021 -4.23177,14.518229 -0.91146,9.440103 -0.91146,11.783853 z" />
    <path
       id="path3732"
       style="font-style:italic;font-variant:normal;font-weight:bold;font-stretch:normal;font-size:133.33332825px;line-height:24.98267746px;font-family:'Roboto Condensed';-inkscape-font-specification:'Roboto Condensed, Bold Italic';letter-spacing:-1.5px;word-spacing:0px;fill:#ffffff;fill-opacity:1;stroke:none;stroke-width:1px;stroke-linecap:butt;stroke-linejoin:miter;stroke-opacity:1"
       d="m 337.34924,102.50839 h -18.03385 l 12.23958,-70.442708 h 18.03385 z m -3.45052,-88.346353 q 0,-4.492187 2.79948,-7.291666 2.86458,-2.864584 6.96614,-2.864584 4.03646,-0.130208 6.83594,2.669271 2.86459,2.734375 2.86459,6.835937 0,4.557292 -2.86459,7.421875 -2.79948,2.799479 -6.90104,2.799479 -4.16667,0.130208 -6.96614,-2.604167 -2.73438,-2.799479 -2.73438,-6.966145 z" />
    <path
       id="path3734"
       style="font-style:italic;font-variant:normal;font-weight:bold;font-stretch:normal;font-size:133.33332825px;line-height:24.98267746px;font-family:'Roboto Condensed';-inkscape-font-specification:'Roboto Condensed, Bold Italic';letter-spacing:-1.5px;word-spacing:0px;fill:#ffffff;fill-opacity:1;stroke:none;stroke-width:1px;stroke-linecap:butt;stroke-linejoin:miter;stroke-opacity:1"
       d="m 378.8831,32.000578 -1.30208,7.096354 q 7.42188,-8.658854 16.47136,-8.398437 7.42187,0.130208 11.26302,5.598958 3.90625,5.403645 3.84114,15.429687 l -0.39062,5.989583 -7.48698,44.791667 h -18.03386 l 7.42188,-44.921876 0.32552,-3.841145 q 0.26042,-7.617187 -5.72917,-7.617187 -2.79948,0 -4.7526,1.562499 -1.95313,1.497396 -3.64583,3.580729 l -8.91927,51.23698 h -18.09896 l 12.23958,-70.442708 z" />
  </g>
</svg>
