<?xml version="1.0" encoding="utf-8"?>
<!-- Generator: Adobe Illustrator 19.2.1, SVG Export Plug-In . SVG Version: 6.00 Build 0)  -->
<svg version="1.1" id="Layer_1" xmlns="http://www.w3.org/2000/svg" xmlns:xlink="http://www.w3.org/1999/xlink" x="0px" y="0px"
	 viewBox="0 0 522.5 138" style="enable-background:new 0 0 522.5 138;" xml:space="preserve">
<style type="text/css">
	.st0{fill:#FFFFFF;}
	.st1{fill:#F9A945;}
</style>
<g>
	<path class="st0" d="M47.7,22c-2.4,0-4-1.6-3.5-3.8l0.9-3.5c0.5-2,2.3-3.1,4.6-3.1c2.4,0,4,1.6,3.5,3.8l-0.9,3.5
		C51.7,20.9,49.9,22,47.7,22"/>
	<path class="st0" d="M25.5,115c-2.6,9.4-8.4,15-16,15c-5.8,0-8.5-0.9-8.5-3.6c0-2,1.5-3.4,3.9-3c0.9,0.1,2.8,0.4,4.2,0.4
		c4.3,0,8.2-2.8,10-9.3l19.6-72.7c0.5-2,1.8-3.1,3.6-3.1c2,0,3.2,1.6,2.7,3.8L25.5,115z"/>
	<path class="st0" d="M94.7,104.8l2.4-9.6c-6.7,8.1-14.4,14.4-26,14.4c-13.6,0-22.5-8.6-22.5-21.8c0-3,0.7-6.5,1.5-9.7l9.6-36.3
		c0.5-2,1.8-3.1,3.6-3.1c2,0,3.2,1.6,2.7,3.8l-9.6,36.1c-0.7,2.6-1.1,5.9-1.1,8.5c0,10.3,6.7,16.6,17.7,16.6
		c11.7,0,24.7-10.7,28.7-25.6l9.7-36.3c0.5-2,1.8-3.1,3.6-3.1c2,0,3.2,1.6,2.7,3.8l-16.7,63c-0.5,2-1.8,3.1-3.6,3.1
		C95.4,108.6,94.2,106.9,94.7,104.8"/>
	<path class="st0" d="M161.9,89.8c0-5.3-3-9.2-15-13.6c-13.1-4.9-19.3-9.4-19.3-18.5c0-10.9,10-20,25.5-20c8.5,0,17.8,3.8,22.4,7.3
		c1.1,0.8,1.8,1.8,1.8,3.1c0,1.8-1.3,3.1-3.1,3.1c-0.8,0-1.8-0.4-2.2-0.7c-5.8-4-12.3-6.7-19.6-6.7c-11.6,0-17.8,6.3-17.8,12.8
		c0,5.3,2.7,8.5,15.5,13.5c13.8,5.4,18.7,10.4,18.7,18.6c0,12-11.7,20.8-25.6,20.8c-9.6,0-18.7-3.1-26.8-9.7
		c-0.9-0.8-1.6-1.9-1.6-3.1c0-1.8,1.3-3.2,3.1-3.2c0.9,0,1.9,0.5,3,1.3c7.1,5.9,14.8,8.6,23.2,8.6C152.9,103.4,161.9,98,161.9,89.8"
		/>
	<path class="st0" d="M203.4,19.8c0.5-2,1.8-3.1,3.6-3.1c2,0,3.2,1.6,2.7,3.8l-5,18.7H225c1.8,0,3.1,1.3,3.1,3.1c0,1.6-1.5,3-3.1,3
		h-21.8l-11.7,43.8c-0.4,1.8-0.7,4.2-0.7,5.8c0,5.7,4.3,8.2,11.2,8.2c1.8,0,3.8-0.3,5.5-0.8c2.7-0.8,4.2,0.4,4.2,2.4
		c0,1.5-0.9,2.4-2.7,3.1c-2.3,0.8-5.1,1.3-8.5,1.3c-9.2,0-16.5-4.2-16.5-13.6c0-2.2,0.4-4.9,0.8-6.6l11.7-43.7h-6.5
		c-1.8,0-3.1-1.3-3.1-3.1c0-1.6,1.5-3,3.1-3h8.1L203.4,19.8z"/>
	<path class="st1" d="M230.8,88.7c5.4,0,9.4,4,9.4,9.3v1.4c0,5.3-4,9.3-9.4,9.3c-5.5,0-9.6-4-9.6-9.3V98
		C221.2,92.8,225.3,88.7,230.8,88.7"/>
	<path class="st0" d="M245.8,72.8v-0.3c0-20.2,15.6-37.2,37.1-37.2c11.2,0,18.9,3.6,25,8.9c1.1,0.9,2.6,3,2.6,5.7
		c0,4.2-3.4,7.4-7.6,7.4c-2,0-3.8-0.8-4.9-1.6c-4.2-3.5-8.8-6.1-15.2-6.1c-11.9,0-20.6,10.3-20.6,22.7v0.3
		c0,12.7,8.8,22.8,21.3,22.8c6.5,0,11.5-2.6,15.9-6.3c0.9-0.8,2.6-1.8,4.4-1.8c3.9,0,7,3.2,7,7.1c0,2.2-0.8,3.9-2.3,5.1
		c-6.3,6.1-14,10.1-25.9,10.1C261.4,109.6,245.8,93,245.8,72.8"/>
	<path class="st0" d="M371.9,43.8c-5-5.1-13-8-23.6-8c-9.3,0-16.2,1.6-22.9,4.2c-2.4,0.9-4.4,3.5-4.4,6.5c0,3.8,3.1,6.7,6.9,6.7
		c0.8,0,1.6-0.1,2.6-0.4c4.4-1.8,9.6-2.8,15.8-2.8c11.5,0,17.7,5.4,17.7,15.5v1.8c-5.5-1.8-11.2-3-19.2-3
		c-17.4,0-29.4,7.6-29.4,22.9v0.3c0,14.3,11.9,22,25.2,22c10.9,0,18.3-4.6,23.2-10.4v2.7c0,3.6,3.2,6.9,8,6.9c4.4,0,8-3.4,8-7.8
		V65.8C379.6,56.5,377.1,48.9,371.9,43.8z M364.1,82.4c0,9-8.2,15.2-19,15.2c-7.8,0-13.9-3.9-13.9-10.8v-0.3
		c0-7.4,6.2-11.9,16.7-11.9c6.5,0,12,1.2,16.2,2.8V82.4z"/>
	<path class="st0" d="M389.7,100.9c-1.8-0.9-3.1-3-3.1-5.7c0-3.6,2.8-6.6,6.6-6.6c1.3,0,2.6,0.4,3.5,0.9c6.9,4.6,14,6.9,20.5,6.9
		c7,0,11.1-3,11.1-7.7v-0.3c0-5.5-7.6-7.4-15.9-10c-10.5-3-22.3-7.3-22.3-20.9v-0.3c0-13.5,11.2-21.7,25.4-21.7
		c7.6,0,15.5,2.2,22.4,5.8c2.3,1.2,3.9,3.4,3.9,6.2c0,3.8-3,6.6-6.7,6.6c-1.3,0-2.2-0.3-3.2-0.8c-5.8-3-11.7-4.9-16.7-4.9
		c-6.3,0-10,3-10,7v0.3c0,5.3,7.7,7.4,16,10.1c10.4,3.2,22.1,8,22.1,20.8V87c0,15-11.6,22.4-26.4,22.4
		C407.8,109.4,397.9,106.5,389.7,100.9"/>
	<path class="st0" d="M453.2,17c0-4.4,3.5-8.1,8.1-8.1c4.6,0,8.2,3.6,8.2,8.1v30.8c4.6-6.6,11.2-12.4,22.3-12.4
		c16.1,0,25.4,10.8,25.4,27.2v38c0,4.6-3.5,8.1-8.1,8.1c-4.6,0-8.2-3.5-8.2-8.1v-33c0-11.1-5.5-17.4-15.2-17.4
		c-9.4,0-16,6.6-16,17.7v32.8c0,4.6-3.6,8.1-8.2,8.1c-4.4,0-8.1-3.5-8.1-8.1V17z"/>
	<path class="st1" d="M58.3,16.3c0,5.3-4.3,9.7-9.7,9.7c-5.3,0-9.7-4.3-9.7-9.7s4.3-9.7,9.7-9.7C54,6.6,58.3,10.9,58.3,16.3"/>
</g>
</svg>
