<?xml version="1.0" encoding="utf-8"?>
<!-- Generator: Adobe Illustrator 19.2.1, SVG Export Plug-In . SVG Version: 6.00 Build 0)  -->
<svg version="1.1" id="Layer_1" xmlns="http://www.w3.org/2000/svg" xmlns:xlink="http://www.w3.org/1999/xlink" x="0px" y="0px"
	 viewBox="0 0 393 389.5" style="enable-background:new 0 0 393 389.5;" xml:space="preserve">
<style type="text/css">
	.st0{fill:#F9AA43;}
	.st1{fill:#F9B569;}
	.st2{fill:#FEFEFE;}
</style>
<g>
	<path class="st0" d="M388.1,193"/>
	<path class="st0" d="M386.6,193"/>
	<g>
		<circle class="st0" cx="196.3" cy="195.8" r="193.7"/>
		<path class="st1" d="M389.9,201L253.7,93.5l-96.4,39.2l-44.7,141.1l136.7,108.4C329,360,386.5,287,389.9,201L389.9,201z
			 M389.9,201"/>
		<g>
			<g>
				<path class="st2" d="M194.1,77.5c63.9,0.1,115.5,51.7,115.4,115.6c-0.1,63.9-51.8,115.5-115.6,115.4
					C130,308.4,78.4,256.7,78.5,192.9C78.7,129,130.3,77.5,194.1,77.5z"/>
				<path class="st0" d="M162.6,193c0-16.4,0-32.9,0-49.3c0-0.4-0.2-1,0.2-1.2c0.4-0.2,0.7,0.3,1,0.5c27.3,16.5,54.5,32.9,81.8,49.4
					c1.1,0.7,1.1,0.7,0,1.4c-21.5,13-43,26-64.6,39c-5.7,3.4-11.4,6.9-17.1,10.3c-0.4,0.2-0.7,0.7-1.1,0.5c-0.4-0.2-0.2-0.8-0.2-1.2
					C162.6,225.9,162.6,209.5,162.6,193z"/>
			</g>
		</g>
	</g>
</g>
</svg>
