<svg id="Layer_1" data-name="Layer 1" xmlns="http://www.w3.org/2000/svg" viewBox="0 0 278.32 409.6"><title>Vector Smart Object2</title><path d="M248.49,0H79.7A29.87,29.87,0,0,0,49.86,29.84V374.06A35.59,35.59,0,0,0,85.41,409.6H242.77a35.59,35.59,0,0,0,35.55-35.55V29.84A29.87,29.87,0,0,0,248.49,0h0ZM79.7,16.32H248.49a13.54,13.54,0,0,1,13.2,10.61H66.49A13.54,13.54,0,0,1,79.7,16.32h0ZM262,374.06a19.25,19.25,0,0,1-19.23,19.23H85.41a19.25,19.25,0,0,1-19.23-19.23V342.69H262v31.36Zm0-47.68H66.18V43.25H262V326.38Zm0,0" style="fill:#fff"/><path d="M243.88,301.33H178.6a8.16,8.16,0,0,0,0,16.32h65.28a8.16,8.16,0,1,0,0-16.32h0Zm0,0" style="fill:#fff"/><path d="M151.68,301.33H138.62a8.16,8.16,0,1,0,0,16.32h13.05a8.16,8.16,0,1,0,0-16.32h0Zm0,0" style="fill:#fff"/><path d="M176.26,360.08H153.42a8.16,8.16,0,1,0,0,16.32h22.84a8.16,8.16,0,1,0,0-16.32h0Zm0,0" style="fill:#fff"/><circle cx="83.5" cy="200.67" r="83.5" style="fill:#5e9fd6"/><path d="M41.61,233V203.29a1.75,1.75,0,0,0-3.5,0V233a1.75,1.75,0,1,0,3.5,0h0Zm0,0" style="fill:#fff"/><path d="M128.88,233V203.29a1.75,1.75,0,0,0-3.5,0V233a1.75,1.75,0,1,0,3.5,0h0Zm0,0" style="fill:#fff"/><path d="M46.84,201.55a1.74,1.74,0,0,0-1.75,1.75V219a1.75,1.75,0,1,0,3.5,0V203.29a1.74,1.74,0,0,0-1.75-1.75h0Zm0,0" style="fill:#fff"/><path d="M52.09,201.55a1.74,1.74,0,0,0-1.75,1.75V219a1.74,1.74,0,1,0,3.48,0V203.29a1.74,1.74,0,0,0-1.74-1.75h0Zm0,0" style="fill:#fff"/><path d="M62.55,219V203.29a1.74,1.74,0,1,0-3.48,0V219a1.74,1.74,0,1,0,3.48,0h0Zm0,0" style="fill:#fff"/><path d="M67.79,219V203.29a1.75,1.75,0,0,0-3.5,0V219a1.75,1.75,0,1,0,3.5,0h0Zm0,0" style="fill:#fff"/><path d="M73,219V203.29a1.74,1.74,0,1,0-3.48,0V219A1.74,1.74,0,1,0,73,219h0Zm0,0" style="fill:#fff"/><path d="M83.5,219V203.29a1.75,1.75,0,0,0-3.5,0V219a1.75,1.75,0,1,0,3.5,0h0Zm0,0" style="fill:#fff"/><path d="M92.23,203.29a1.75,1.75,0,0,0-3.5,0V219a1.75,1.75,0,1,0,3.5,0V203.29Zm0,0" style="fill:#fff"/><path d="M97.46,203.29a1.74,1.74,0,1,0-3.48,0V219a1.74,1.74,0,1,0,3.48,0V203.29Zm0,0" style="fill:#fff"/><path d="M104.45,201.55a1.74,1.74,0,0,0-1.75,1.75V219a1.74,1.74,0,1,0,3.48,0V203.29a1.74,1.74,0,0,0-1.74-1.75h0Zm0,0" style="fill:#fff"/><path d="M109.68,201.55a1.74,1.74,0,0,0-1.75,1.75V219a1.75,1.75,0,1,0,3.5,0V203.29a1.74,1.74,0,0,0-1.75-1.75h0Zm0,0" style="fill:#fff"/><path d="M120.16,220.75A1.75,1.75,0,0,0,121.9,219V203.29a1.75,1.75,0,0,0-3.5,0V219a1.75,1.75,0,0,0,1.75,1.75h0Zm0,0" style="fill:#fff"/><path d="M38.12,168.39v24.43a1.75,1.75,0,1,0,3.5,0V168.39a1.75,1.75,0,1,0-3.5,0h0Zm0,0" style="fill:#fff"/><path d="M128.88,192.82V168.39a1.75,1.75,0,1,0-3.5,0v24.43a1.75,1.75,0,1,0,3.5,0h0Zm0,0" style="fill:#fff"/><path d="M45.1,192.82a1.75,1.75,0,0,0,3.5,0V168.39a1.75,1.75,0,0,0-3.5,0v24.43Zm0,0" style="fill:#fff"/><path d="M52.09,194.57a1.74,1.74,0,0,0,1.74-1.75V168.39a1.74,1.74,0,1,0-3.48,0v24.43a1.75,1.75,0,0,0,1.75,1.75h0Zm0,0" style="fill:#fff"/><path d="M60.81,194.57a1.74,1.74,0,0,0,1.74-1.75V168.39a1.74,1.74,0,1,0-3.48,0v24.43a1.75,1.75,0,0,0,1.75,1.75h0Zm0,0" style="fill:#fff"/><path d="M66,194.57a1.75,1.75,0,0,0,1.75-1.75V168.39a1.75,1.75,0,1,0-3.5,0v24.43A1.75,1.75,0,0,0,66,194.57h0Zm0,0" style="fill:#fff"/><path d="M71.28,194.57A1.75,1.75,0,0,0,73,192.82V168.39a1.74,1.74,0,1,0-3.48,0v24.43a1.74,1.74,0,0,0,1.74,1.75h0Zm0,0" style="fill:#fff"/><path d="M81.75,194.57a1.75,1.75,0,0,0,1.75-1.75V168.39a1.75,1.75,0,0,0-3.5,0v24.43a1.75,1.75,0,0,0,1.75,1.75h0Zm0,0" style="fill:#fff"/><path d="M90.48,194.57a1.75,1.75,0,0,0,1.75-1.75V168.39a1.75,1.75,0,1,0-3.5,0v24.43a1.75,1.75,0,0,0,1.75,1.75h0Zm0,0" style="fill:#fff"/><path d="M95.72,194.57a1.74,1.74,0,0,0,1.74-1.75V168.39a1.74,1.74,0,1,0-3.48,0v24.43a1.75,1.75,0,0,0,1.75,1.75h0Zm0,0" style="fill:#fff"/><path d="M104.45,194.57a1.74,1.74,0,0,0,1.74-1.75V168.39a1.74,1.74,0,1,0-3.48,0v24.43a1.75,1.75,0,0,0,1.75,1.75h0Zm0,0" style="fill:#fff"/><path d="M109.68,194.57a1.75,1.75,0,0,0,1.75-1.75V168.39a1.75,1.75,0,0,0-3.5,0v24.43a1.75,1.75,0,0,0,1.75,1.75h0Zm0,0" style="fill:#fff"/><path d="M120.16,194.57a1.75,1.75,0,0,0,1.75-1.75V168.39a1.75,1.75,0,0,0-3.5,0v24.43a1.75,1.75,0,0,0,1.75,1.75h0Zm0,0" style="fill:#fff"/><path d="M46.84,226a1.75,1.75,0,0,0-1.75,1.75v1.75a1.75,1.75,0,0,0,3.5,0v-1.75A1.75,1.75,0,0,0,46.84,226h0Zm0,0" style="fill:#fff"/><path d="M52.09,226a1.75,1.75,0,0,0-1.75,1.75v1.75a1.74,1.74,0,0,0,3.48,0v-1.75A1.74,1.74,0,0,0,52.09,226h0Zm0,0" style="fill:#fff"/><path d="M57.32,226a1.75,1.75,0,0,0-1.75,1.75v1.75a1.75,1.75,0,0,0,3.5,0v-1.75A1.75,1.75,0,0,0,57.32,226h0Zm0,0" style="fill:#fff"/><path d="M62.55,226a1.74,1.74,0,0,0-1.74,1.75v1.75a1.74,1.74,0,0,0,3.48,0v-1.75A1.75,1.75,0,0,0,62.55,226h0Zm0,0" style="fill:#fff"/><path d="M67.79,226A1.75,1.75,0,0,0,66,227.73v1.75a1.75,1.75,0,0,0,3.5,0v-1.75A1.75,1.75,0,0,0,67.79,226h0Zm0,0" style="fill:#fff"/><path d="M109.68,226a1.75,1.75,0,0,0-1.75,1.75v1.75a1.75,1.75,0,0,0,3.5,0v-1.75a1.75,1.75,0,0,0-1.75-1.75h0Zm0,0" style="fill:#fff"/><path d="M114.91,226a1.74,1.74,0,0,0-1.74,1.75v1.75a1.74,1.74,0,0,0,3.48,0v-1.75a1.75,1.75,0,0,0-1.75-1.75h0Zm0,0" style="fill:#fff"/><path d="M121.9,227.73a1.75,1.75,0,0,0-3.5,0v1.75a1.75,1.75,0,0,0,3.5,0v-1.75Zm0,0" style="fill:#fff"/><path d="M45.1,241.69H34.63V233a1.75,1.75,0,1,0-3.5,0v12.22h14a1.75,1.75,0,1,0,0-3.5h0Zm0,0" style="fill:#fff"/><path d="M134.12,231.21a1.75,1.75,0,0,0-1.75,1.75v8.73h-8.73a1.75,1.75,0,0,0,0,3.5h12.22V233a1.75,1.75,0,0,0-1.75-1.75h0Zm0,0" style="fill:#fff"/><path d="M121.9,156.16a1.75,1.75,0,0,0,0,3.5h10.46v8.73a1.75,1.75,0,0,0,3.5,0V156.16h-14Zm0,0" style="fill:#fff"/><path d="M32.88,170.12a1.74,1.74,0,0,0,1.75-1.74v-8.73h8.73a1.75,1.75,0,0,0,0-3.5H31.14v12.22a1.74,1.74,0,0,0,1.75,1.74h0Zm0,0" style="fill:#fff"/><path d="M134.12,196.3H32.88a1.75,1.75,0,1,0,0,3.5H134.12a1.75,1.75,0,1,0,0-3.5h0Zm0,0" style="fill:#fff"/><path d="M64,232l0.53-.54a0.2,0.2,0,0,1,.31,0,0.85,0.85,0,0,0,1.5-.71v-4.84a0.19,0.19,0,0,1,.19-0.19h1a0.19,0.19,0,0,1,.19.19v4.84A2.08,2.08,0,0,1,65.5,233a2,2,0,0,1-1.56-.75A0.21,0.21,0,0,1,64,232Z" style="fill:#fff"/><path d="M68.84,229a0.2,0.2,0,0,1,.19-0.2h0.84a0.2,0.2,0,0,1,.19.2v2a0.76,0.76,0,0,0,.75.88,0.9,0.9,0,0,0,.82-0.77V229c0-.15.06-0.2,0.23-0.2h0.78a0.2,0.2,0,0,1,.19.2v3.71a0.2,0.2,0,0,1-.19.19H72.26a0.21,0.21,0,0,1-.19-0.15l-0.12-.34a1.84,1.84,0,0,1-1.37.59,1.74,1.74,0,0,1-1.73-2v-2Z" style="fill:#fff"/><path d="M73.84,232.43l0.28-.55a0.16,0.16,0,0,1,.24-0.07,2.29,2.29,0,0,0,.93.25,0.29,0.29,0,0,0,.35-0.26c0-.18-0.14-0.3-0.69-0.51a1.45,1.45,0,0,1-1.16-1.35,1.28,1.28,0,0,1,1.51-1.21,2.35,2.35,0,0,1,1.26.32,0.22,0.22,0,0,1,.09.28l-0.26.52a0.2,0.2,0,0,1-.25.07,2.43,2.43,0,0,0-.85-0.21c-0.25,0-.35.1-0.35,0.24s0.18,0.25.56,0.4c0.79,0.31,1.38.64,1.38,1.44A1.41,1.41,0,0,1,75.27,233a2.32,2.32,0,0,1-1.36-.38A0.18,0.18,0,0,1,73.84,232.43Z" style="fill:#fff"/><path d="M78,229.9H77.67a0.19,0.19,0,0,1-.18-0.19V229a0.19,0.19,0,0,1,.18-0.2H78v-1.14a0.2,0.2,0,0,1,.19-0.19h0.84a0.19,0.19,0,0,1,.18.19v1.15h0.9a0.19,0.19,0,0,1,.19.2v0.69a0.19,0.19,0,0,1-.19.19h-0.9v1.64a0.27,0.27,0,0,0,.32.33,1.64,1.64,0,0,0,.5-0.11,0.16,0.16,0,0,1,.23.11l0.2,0.65a0.19,0.19,0,0,1-.11.25,3.84,3.84,0,0,1-1.22.27A1.1,1.1,0,0,1,78,231.71v-1.8Z" style="fill:#fff"/><path d="M87.1,225.65a3.46,3.46,0,0,1,2.48,1,0.19,0.19,0,0,1,0,.29l-0.62.65a0.16,0.16,0,0,1-.26,0,2.42,2.42,0,0,0-1.58-.61,2.38,2.38,0,0,0,0,4.75,2.46,2.46,0,0,0,1.57-.58,0.19,0.19,0,0,1,.26,0l0.64,0.66a0.2,0.2,0,0,1,0,.28,3.52,3.52,0,0,1-2.49,1A3.69,3.69,0,1,1,87.1,225.65Z" style="fill:#fff"/><path d="M91.87,230.33a2.66,2.66,0,0,1,.75.11c0-.52-0.15-0.71-0.53-0.71a5,5,0,0,0-1.15.15,0.18,0.18,0,0,1-.24-0.18l-0.09-.53a0.2,0.2,0,0,1,.14-0.26,5.47,5.47,0,0,1,1.39-.19c1.28,0,1.58.67,1.58,1.78v2.22a0.2,0.2,0,0,1-.19.19H93.16a0.18,0.18,0,0,1-.17-0.14l-0.12-.28a1.76,1.76,0,0,1-1.25.52,1.31,1.31,0,0,1-1.38-1.4A1.41,1.41,0,0,1,91.87,230.33Zm0,1.82a1,1,0,0,0,.71-0.4v-0.56a1.6,1.6,0,0,0-.57-0.12,0.59,0.59,0,0,0-.67.55A0.51,0.51,0,0,0,91.89,232.16Z" style="fill:#fff"/><path d="M94.68,232.43l0.28-.55a0.16,0.16,0,0,1,.24-0.07,2.29,2.29,0,0,0,.93.25,0.29,0.29,0,0,0,.35-0.26c0-.18-0.14-0.3-0.69-0.51a1.45,1.45,0,0,1-1.16-1.35,1.28,1.28,0,0,1,1.51-1.21,2.35,2.35,0,0,1,1.26.32,0.22,0.22,0,0,1,.09.28l-0.26.52a0.2,0.2,0,0,1-.25.07,2.43,2.43,0,0,0-.85-0.21c-0.25,0-.35.1-0.35,0.24s0.18,0.25.56,0.4c0.79,0.31,1.38.64,1.38,1.44A1.4,1.4,0,0,1,96.1,233a2.32,2.32,0,0,1-1.36-.38A0.18,0.18,0,0,1,94.68,232.43Z" style="fill:#fff"/><path d="M98.64,225.95a0.2,0.2,0,0,1,.19-0.19H99.7a0.2,0.2,0,0,1,.19.19v3.11a1.89,1.89,0,0,1,1.09-.34,1.82,1.82,0,0,1,1.83,2v2a0.2,0.2,0,0,1-.19.19h-0.83a0.19,0.19,0,0,1-.19-0.19v-2a0.81,0.81,0,0,0-.81-0.92,0.89,0.89,0,0,0-.89.73v2.17a0.18,0.18,0,0,1-.22.19H98.83a0.2,0.2,0,0,1-.19-0.19v-6.78Z" style="fill:#fff"/></svg>