<?xml version="1.0" encoding="utf-8"?>
<!-- Generator: Adobe Illustrator 19.2.1, SVG Export Plug-In . SVG Version: 6.00 Build 0)  -->
<svg version="1.1" id="Layer_1" xmlns="http://www.w3.org/2000/svg" xmlns:xlink="http://www.w3.org/1999/xlink" x="0px" y="0px"
	 viewBox="0 0 228.4 409.5" style="enable-background:new 0 0 228.4 409.5;" xml:space="preserve">
<style type="text/css">
	.st0{fill:#FFFFFF;}
</style>
<path class="st0" d="M198.6,0H29.8C13.4,0,0,13.4,0,29.8V374c0,19.6,15.9,35.5,35.5,35.5h157.4c19.6,0,35.5-15.9,35.5-35.5V29.8
	C228.5,13.4,215.1,0,198.6,0L198.6,0z M29.8,16.3h168.8c6.5,0,11.9,4.5,13.2,10.6H16.6C18,20.9,23.4,16.3,29.8,16.3L29.8,16.3z
	 M212.1,374.1c0,10.6-8.6,19.2-19.2,19.2H35.5c-10.6,0-19.2-8.6-19.2-19.2v-31.4h195.8V374.1z M212.1,326.4H16.3V43.2h195.8V326.4z"
	/>
<path class="st0" d="M193.3,301.1H128c-4.5,0-8.2,3.7-8.2,8.2s3.7,8.2,8.2,8.2h65.3c4.5,0,8.2-3.7,8.2-8.2
	C201.4,304.7,197.8,301.1,193.3,301.1L193.3,301.1z"/>
<path class="st0" d="M101.1,301.1H88c-4.5,0-8.2,3.7-8.2,8.2s3.7,8.2,8.2,8.2h13.1c4.5,0,8.2-3.7,8.2-8.2
	C109.2,304.7,105.6,301.1,101.1,301.1L101.1,301.1z"/>
<path class="st0" d="M125.7,359.8h-22.8c-4.5,0-8.2,3.7-8.2,8.2s3.7,8.2,8.2,8.2h22.8c4.5,0,8.2-3.7,8.2-8.2
	C133.8,363.5,130.2,359.8,125.7,359.8L125.7,359.8z"/>
</svg>
