<svg id="Layer_1" data-name="Layer 1" xmlns="http://www.w3.org/2000/svg" viewBox="0 0 354 288"><title>tour3</title><path d="M134.32,159a6.07,6.07,0,0,0-7.76,3.52l-33,87.84a6.07,6.07,0,0,0,3.52,7.76,6,6,0,0,0,7.76-3.52l33-87.84a6.07,6.07,0,0,0-3.52-7.76h0Zm0,0" style="fill:#fff"/><path d="M98.72,196.24l10.56-29.52A6,6,0,1,0,98,162.64L87.44,192.16a6,6,0,0,0,3.6,7.68,5.86,5.86,0,0,0,2,.32,6.2,6.2,0,0,0,5.68-3.92h0Zm0,0" style="fill:#fff"/><path d="M348,0H6A6,6,0,0,0,0,6V95.68a6,6,0,0,0,6,6H90.24L29.52,280.08a6,6,0,0,0,.8,5.44A5.92,5.92,0,0,0,35.2,288h143a6,6,0,0,0,5.68-4l64-182.32H348a6,6,0,0,0,6-6V6a6,6,0,0,0-6-6h0ZM43.6,276L118.48,55.92H192.8L114.88,276H43.6Zm84,0L205.52,55.92h14.64L144.08,276H127.6Zm46.32,0h-17.2L232.88,55.92h18.4ZM342,89.68H252.08l11.84-33.76h29.92a6,6,0,0,0,0-12H60.08a6,6,0,0,0,0,12h45.68L94.24,89.68H12V12H342V89.68Zm0,0" style="fill:#fff"/><path d="M154.9,97.31l-2.71-1.7a1,1,0,0,1-.36-1.67,12.88,12.88,0,0,0,2.2-4.89l-8.76-.89c-2,3.42-4.47,7.39-9.19,7.61-5.14.25-9.65-2.72-10.35-9.44l-1.51-.11a1,1,0,0,1-.93-0.89l0-.66a0.7,0.7,0,0,1,.86-0.7l1.55,0.11a13.16,13.16,0,0,1,2.69-7.3,1.2,1.2,0,0,1,1.54-.12l2.72,1.88a0.93,0.93,0,0,1,.26,1.44A9.87,9.87,0,0,0,131,84.64l8.47,0.76c1.58-3.08,4.08-7.7,9.32-7.95,5.66-.27,10.14,3.21,10.69,9.84l4.85,0.42a1,1,0,0,1,.89.89l0,0.75a0.65,0.65,0,0,1-.81.6l-4.9-.42a11.93,11.93,0,0,1-3.1,7.6A1,1,0,0,1,154.9,97.31ZM130.92,87a3.78,3.78,0,0,0,3.94,3,4.35,4.35,0,0,0,3.55-2.28Zm19.15-3.27A5.09,5.09,0,0,0,146.24,86L154,86.72A3.68,3.68,0,0,0,150.07,83.72Z" style="fill:#fff"/></svg>